<?xml version="1.0" encoding="utf-8"?>
<!-- Generator: Adobe Illustrator 23.0.0, SVG Export Plug-In . SVG Version: 6.00 Build 0)  -->
<svg version="1.1" id="Layer_1" xmlns="http://www.w3.org/2000/svg" xmlns:xlink="http://www.w3.org/1999/xlink" x="0px" y="0px"
	 viewBox="0 0 1400 980" enable-background="new 0 0 1400 980" xml:space="preserve">
<g>
	<defs>
		<rect id="SVGID_1_" width="1400" height="980"/>
	</defs>
	<clipPath id="SVGID_2_">
		<use xlink:href="#SVGID_1_"  overflow="visible"/>
	</clipPath>
	<g clip-path="url(#SVGID_2_)">
		<g>
			<g>
				
					<path fill="none" stroke="#E6E6E6" stroke-width="10" stroke-linecap="round" stroke-linejoin="round" stroke-miterlimit="10" d="
					M186.67,917.4V836.3c0-14.93,12.1-27.03,27.03-27.03s27.03,12.1,27.03,27.03s-12.1,27.03-27.03,27.03"/>
				
					<path fill="none" stroke="#E6E6E6" stroke-width="10" stroke-linecap="round" stroke-linejoin="round" stroke-miterlimit="10" d="
					M213.7,902.6c36.62,0,66.3-29.68,66.3-66.3S250.32,770,213.7,770s-66.3,29.68-66.3,66.3v81.09"/>
				
					<path fill="none" stroke="#E6E6E6" stroke-width="10" stroke-linecap="round" stroke-linejoin="round" stroke-miterlimit="10" d="
					M213.7,882.71c25.63,0,46.41-20.78,46.41-46.41s-20.78-46.41-46.41-46.41s-46.41,20.78-46.41,46.41v81.09"/>
			</g>
			<g>
				
					<path fill="none" stroke="#E6E6E6" stroke-width="10" stroke-linecap="round" stroke-linejoin="round" stroke-miterlimit="10" d="
					M132.6,956.67h81.09c14.93,0,27.03,12.1,27.03,27.03s-12.1,27.03-27.03,27.03s-27.03-12.1-27.03-27.03"/>
				
					<path fill="none" stroke="#E6E6E6" stroke-width="10" stroke-linecap="round" stroke-linejoin="round" stroke-miterlimit="10" d="
					M147.4,983.7c0,36.62,29.68,66.3,66.3,66.3s66.3-29.68,66.3-66.3s-29.68-66.3-66.3-66.3H132.6"/>
				
					<path fill="none" stroke="#E6E6E6" stroke-width="10" stroke-linecap="round" stroke-linejoin="round" stroke-miterlimit="10" d="
					M167.29,983.7c0,25.63,20.78,46.41,46.41,46.41s46.41-20.78,46.41-46.41s-20.78-46.41-46.41-46.41H132.6"/>
			</g>
			<g>
				
					<path fill="none" stroke="#E6E6E6" stroke-width="10" stroke-linecap="round" stroke-linejoin="round" stroke-miterlimit="10" d="
					M93.33,902.6v81.09c0,14.93-12.1,27.03-27.03,27.03s-27.03-12.1-27.03-27.03s12.1-27.03,27.03-27.03"/>
				
					<path fill="none" stroke="#E6E6E6" stroke-width="10" stroke-linecap="round" stroke-linejoin="round" stroke-miterlimit="10" d="
					M66.3,917.4C29.68,917.4,0,947.08,0,983.7s29.68,66.3,66.3,66.3s66.3-29.68,66.3-66.3V902.6"/>
				
					<path fill="none" stroke="#E6E6E6" stroke-width="10" stroke-linecap="round" stroke-linejoin="round" stroke-miterlimit="10" d="
					M66.3,937.29c-25.63,0-46.41,20.78-46.41,46.41s20.78,46.41,46.41,46.41s46.41-20.78,46.41-46.41V902.6"/>
			</g>
			<g>
				
					<path fill="none" stroke="#E6E6E6" stroke-width="10" stroke-linecap="round" stroke-linejoin="round" stroke-miterlimit="10" d="
					M147.4,863.33H66.3c-14.93,0-27.03-12.1-27.03-27.03s12.1-27.03,27.03-27.03s27.03,12.1,27.03,27.03"/>
				
					<path fill="none" stroke="#E6E6E6" stroke-width="10" stroke-linecap="round" stroke-linejoin="round" stroke-miterlimit="10" d="
					M132.6,836.3c0-36.62-29.68-66.3-66.3-66.3S0,799.68,0,836.3s29.68,66.3,66.3,66.3h81.09"/>
				
					<path fill="none" stroke="#E6E6E6" stroke-width="10" stroke-linecap="round" stroke-linejoin="round" stroke-miterlimit="10" d="
					M112.71,836.3c0-25.63-20.78-46.41-46.41-46.41s-46.41,20.78-46.41,46.41s20.78,46.41,46.41,46.41h81.09"/>
			</g>
		</g>
		<g>
			<g>
				
					<path fill="none" stroke="#E6E6E6" stroke-width="10" stroke-linecap="round" stroke-linejoin="round" stroke-miterlimit="10" d="
					M466.67,917.4V836.3c0-14.93,12.1-27.03,27.03-27.03s27.03,12.1,27.03,27.03s-12.1,27.03-27.03,27.03"/>
				
					<path fill="none" stroke="#E6E6E6" stroke-width="10" stroke-linecap="round" stroke-linejoin="round" stroke-miterlimit="10" d="
					M493.7,902.6c36.62,0,66.3-29.68,66.3-66.3S530.32,770,493.7,770s-66.3,29.68-66.3,66.3v81.09"/>
				
					<path fill="none" stroke="#E6E6E6" stroke-width="10" stroke-linecap="round" stroke-linejoin="round" stroke-miterlimit="10" d="
					M493.7,882.71c25.63,0,46.41-20.78,46.41-46.41s-20.78-46.41-46.41-46.41s-46.41,20.78-46.41,46.41v81.09"/>
			</g>
			<g>
				
					<path fill="none" stroke="#E6E6E6" stroke-width="10" stroke-linecap="round" stroke-linejoin="round" stroke-miterlimit="10" d="
					M412.6,956.67h81.09c14.93,0,27.03,12.1,27.03,27.03s-12.1,27.03-27.03,27.03s-27.03-12.1-27.03-27.03"/>
				
					<path fill="none" stroke="#E6E6E6" stroke-width="10" stroke-linecap="round" stroke-linejoin="round" stroke-miterlimit="10" d="
					M427.4,983.7c0,36.62,29.68,66.3,66.3,66.3s66.3-29.68,66.3-66.3s-29.68-66.3-66.3-66.3H412.6"/>
				
					<path fill="none" stroke="#E6E6E6" stroke-width="10" stroke-linecap="round" stroke-linejoin="round" stroke-miterlimit="10" d="
					M447.29,983.7c0,25.63,20.78,46.41,46.41,46.41s46.41-20.78,46.41-46.41s-20.78-46.41-46.41-46.41H412.6"/>
			</g>
			<g>
				
					<path fill="none" stroke="#E6E6E6" stroke-width="10" stroke-linecap="round" stroke-linejoin="round" stroke-miterlimit="10" d="
					M373.33,902.6v81.09c0,14.93-12.1,27.03-27.03,27.03s-27.03-12.1-27.03-27.03s12.1-27.03,27.03-27.03"/>
				
					<path fill="none" stroke="#E6E6E6" stroke-width="10" stroke-linecap="round" stroke-linejoin="round" stroke-miterlimit="10" d="
					M346.3,917.4c-36.62,0-66.3,29.68-66.3,66.3s29.68,66.3,66.3,66.3s66.3-29.68,66.3-66.3V902.6"/>
				
					<path fill="none" stroke="#E6E6E6" stroke-width="10" stroke-linecap="round" stroke-linejoin="round" stroke-miterlimit="10" d="
					M346.3,937.29c-25.63,0-46.41,20.78-46.41,46.41s20.78,46.41,46.41,46.41s46.41-20.78,46.41-46.41V902.6"/>
			</g>
			<g>
				
					<path fill="none" stroke="#E6E6E6" stroke-width="10" stroke-linecap="round" stroke-linejoin="round" stroke-miterlimit="10" d="
					M427.4,863.33H346.3c-14.93,0-27.03-12.1-27.03-27.03s12.1-27.03,27.03-27.03s27.03,12.1,27.03,27.03"/>
				
					<path fill="none" stroke="#E6E6E6" stroke-width="10" stroke-linecap="round" stroke-linejoin="round" stroke-miterlimit="10" d="
					M412.6,836.3c0-36.62-29.68-66.3-66.3-66.3S280,799.68,280,836.3s29.68,66.3,66.3,66.3h81.09"/>
				
					<path fill="none" stroke="#E6E6E6" stroke-width="10" stroke-linecap="round" stroke-linejoin="round" stroke-miterlimit="10" d="
					M392.71,836.3c0-25.63-20.78-46.41-46.41-46.41s-46.41,20.78-46.41,46.41s20.78,46.41,46.41,46.41h81.09"/>
			</g>
		</g>
		<g>
			<g>
				
					<path fill="none" stroke="#E6E6E6" stroke-width="10" stroke-linecap="round" stroke-linejoin="round" stroke-miterlimit="10" d="
					M746.67,917.4V836.3c0-14.93,12.1-27.03,27.03-27.03s27.03,12.1,27.03,27.03s-12.1,27.03-27.03,27.03"/>
				
					<path fill="none" stroke="#E6E6E6" stroke-width="10" stroke-linecap="round" stroke-linejoin="round" stroke-miterlimit="10" d="
					M773.7,902.6c36.62,0,66.3-29.68,66.3-66.3S810.32,770,773.7,770s-66.3,29.68-66.3,66.3v81.09"/>
				
					<path fill="none" stroke="#E6E6E6" stroke-width="10" stroke-linecap="round" stroke-linejoin="round" stroke-miterlimit="10" d="
					M773.7,882.71c25.63,0,46.41-20.78,46.41-46.41s-20.78-46.41-46.41-46.41s-46.41,20.78-46.41,46.41v81.09"/>
			</g>
			<g>
				
					<path fill="none" stroke="#E6E6E6" stroke-width="10" stroke-linecap="round" stroke-linejoin="round" stroke-miterlimit="10" d="
					M692.6,956.67h81.09c14.93,0,27.03,12.1,27.03,27.03s-12.1,27.03-27.03,27.03s-27.03-12.1-27.03-27.03"/>
				
					<path fill="none" stroke="#E6E6E6" stroke-width="10" stroke-linecap="round" stroke-linejoin="round" stroke-miterlimit="10" d="
					M707.4,983.7c0,36.62,29.68,66.3,66.3,66.3s66.3-29.68,66.3-66.3s-29.68-66.3-66.3-66.3H692.6"/>
				
					<path fill="none" stroke="#E6E6E6" stroke-width="10" stroke-linecap="round" stroke-linejoin="round" stroke-miterlimit="10" d="
					M727.29,983.7c0,25.63,20.78,46.41,46.41,46.41s46.41-20.78,46.41-46.41s-20.78-46.41-46.41-46.41H692.6"/>
			</g>
			<g>
				
					<path fill="none" stroke="#E6E6E6" stroke-width="10" stroke-linecap="round" stroke-linejoin="round" stroke-miterlimit="10" d="
					M653.33,902.6v81.09c0,14.93-12.1,27.03-27.03,27.03s-27.03-12.1-27.03-27.03s12.1-27.03,27.03-27.03"/>
				
					<path fill="none" stroke="#E6E6E6" stroke-width="10" stroke-linecap="round" stroke-linejoin="round" stroke-miterlimit="10" d="
					M626.3,917.4c-36.62,0-66.3,29.68-66.3,66.3s29.68,66.3,66.3,66.3s66.3-29.68,66.3-66.3V902.6"/>
				
					<path fill="none" stroke="#E6E6E6" stroke-width="10" stroke-linecap="round" stroke-linejoin="round" stroke-miterlimit="10" d="
					M626.3,937.29c-25.63,0-46.41,20.78-46.41,46.41s20.78,46.41,46.41,46.41s46.41-20.78,46.41-46.41V902.6"/>
			</g>
			<g>
				
					<path fill="none" stroke="#E6E6E6" stroke-width="10" stroke-linecap="round" stroke-linejoin="round" stroke-miterlimit="10" d="
					M707.4,863.33H626.3c-14.93,0-27.03-12.1-27.03-27.03s12.1-27.03,27.03-27.03s27.03,12.1,27.03,27.03"/>
				
					<path fill="none" stroke="#E6E6E6" stroke-width="10" stroke-linecap="round" stroke-linejoin="round" stroke-miterlimit="10" d="
					M692.6,836.3c0-36.62-29.68-66.3-66.3-66.3S560,799.68,560,836.3s29.68,66.3,66.3,66.3h81.09"/>
				
					<path fill="none" stroke="#E6E6E6" stroke-width="10" stroke-linecap="round" stroke-linejoin="round" stroke-miterlimit="10" d="
					M672.71,836.3c0-25.63-20.78-46.41-46.41-46.41s-46.41,20.78-46.41,46.41s20.78,46.41,46.41,46.41h81.09"/>
			</g>
		</g>
		<g>
			<g>
				
					<path fill="none" stroke="#E6E6E6" stroke-width="10" stroke-linecap="round" stroke-linejoin="round" stroke-miterlimit="10" d="
					M1026.67,917.4V836.3c0-14.93,12.1-27.03,27.03-27.03s27.03,12.1,27.03,27.03s-12.1,27.03-27.03,27.03"/>
				
					<path fill="none" stroke="#E6E6E6" stroke-width="10" stroke-linecap="round" stroke-linejoin="round" stroke-miterlimit="10" d="
					M1053.7,902.6c36.62,0,66.3-29.68,66.3-66.3s-29.68-66.3-66.3-66.3s-66.3,29.68-66.3,66.3v81.09"/>
				
					<path fill="none" stroke="#E6E6E6" stroke-width="10" stroke-linecap="round" stroke-linejoin="round" stroke-miterlimit="10" d="
					M1053.7,882.71c25.63,0,46.41-20.78,46.41-46.41s-20.78-46.41-46.41-46.41s-46.41,20.78-46.41,46.41v81.09"/>
			</g>
			<g>
				
					<path fill="none" stroke="#E6E6E6" stroke-width="10" stroke-linecap="round" stroke-linejoin="round" stroke-miterlimit="10" d="
					M972.6,956.67h81.09c14.93,0,27.03,12.1,27.03,27.03s-12.1,27.03-27.03,27.03s-27.03-12.1-27.03-27.03"/>
				
					<path fill="none" stroke="#E6E6E6" stroke-width="10" stroke-linecap="round" stroke-linejoin="round" stroke-miterlimit="10" d="
					M987.4,983.7c0,36.62,29.68,66.3,66.3,66.3s66.3-29.68,66.3-66.3s-29.68-66.3-66.3-66.3H972.6"/>
				
					<path fill="none" stroke="#E6E6E6" stroke-width="10" stroke-linecap="round" stroke-linejoin="round" stroke-miterlimit="10" d="
					M1007.29,983.7c0,25.63,20.78,46.41,46.41,46.41s46.41-20.78,46.41-46.41s-20.78-46.41-46.41-46.41H972.6"/>
			</g>
			<g>
				
					<path fill="none" stroke="#E6E6E6" stroke-width="10" stroke-linecap="round" stroke-linejoin="round" stroke-miterlimit="10" d="
					M933.33,902.6v81.09c0,14.93-12.1,27.03-27.03,27.03s-27.03-12.1-27.03-27.03s12.1-27.03,27.03-27.03"/>
				
					<path fill="none" stroke="#E6E6E6" stroke-width="10" stroke-linecap="round" stroke-linejoin="round" stroke-miterlimit="10" d="
					M906.3,917.4c-36.62,0-66.3,29.68-66.3,66.3s29.68,66.3,66.3,66.3s66.3-29.68,66.3-66.3V902.6"/>
				
					<path fill="none" stroke="#E6E6E6" stroke-width="10" stroke-linecap="round" stroke-linejoin="round" stroke-miterlimit="10" d="
					M906.3,937.29c-25.63,0-46.41,20.78-46.41,46.41s20.78,46.41,46.41,46.41s46.41-20.78,46.41-46.41V902.6"/>
			</g>
			<g>
				
					<path fill="none" stroke="#E6E6E6" stroke-width="10" stroke-linecap="round" stroke-linejoin="round" stroke-miterlimit="10" d="
					M987.4,863.33H906.3c-14.93,0-27.03-12.1-27.03-27.03s12.1-27.03,27.03-27.03s27.03,12.1,27.03,27.03"/>
				
					<path fill="none" stroke="#E6E6E6" stroke-width="10" stroke-linecap="round" stroke-linejoin="round" stroke-miterlimit="10" d="
					M972.6,836.3c0-36.62-29.68-66.3-66.3-66.3S840,799.68,840,836.3s29.68,66.3,66.3,66.3h81.09"/>
				
					<path fill="none" stroke="#E6E6E6" stroke-width="10" stroke-linecap="round" stroke-linejoin="round" stroke-miterlimit="10" d="
					M952.71,836.3c0-25.63-20.78-46.41-46.41-46.41s-46.41,20.78-46.41,46.41s20.78,46.41,46.41,46.41h81.09"/>
			</g>
		</g>
		<g>
			<g>
				
					<path fill="none" stroke="#E6E6E6" stroke-width="10" stroke-linecap="round" stroke-linejoin="round" stroke-miterlimit="10" d="
					M1306.67,917.4V836.3c0-14.93,12.1-27.03,27.03-27.03s27.03,12.1,27.03,27.03s-12.1,27.03-27.03,27.03"/>
				
					<path fill="none" stroke="#E6E6E6" stroke-width="10" stroke-linecap="round" stroke-linejoin="round" stroke-miterlimit="10" d="
					M1333.7,902.6c36.62,0,66.3-29.68,66.3-66.3s-29.68-66.3-66.3-66.3s-66.3,29.68-66.3,66.3v81.09"/>
				
					<path fill="none" stroke="#E6E6E6" stroke-width="10" stroke-linecap="round" stroke-linejoin="round" stroke-miterlimit="10" d="
					M1333.7,882.71c25.63,0,46.41-20.78,46.41-46.41s-20.78-46.41-46.41-46.41s-46.41,20.78-46.41,46.41v81.09"/>
			</g>
			<g>
				
					<path fill="none" stroke="#E6E6E6" stroke-width="10" stroke-linecap="round" stroke-linejoin="round" stroke-miterlimit="10" d="
					M1252.6,956.67h81.09c14.93,0,27.03,12.1,27.03,27.03s-12.1,27.03-27.03,27.03s-27.03-12.1-27.03-27.03"/>
				
					<path fill="none" stroke="#E6E6E6" stroke-width="10" stroke-linecap="round" stroke-linejoin="round" stroke-miterlimit="10" d="
					M1267.4,983.7c0,36.62,29.68,66.3,66.3,66.3s66.3-29.68,66.3-66.3s-29.68-66.3-66.3-66.3h-81.09"/>
				
					<path fill="none" stroke="#E6E6E6" stroke-width="10" stroke-linecap="round" stroke-linejoin="round" stroke-miterlimit="10" d="
					M1287.29,983.7c0,25.63,20.78,46.41,46.41,46.41s46.41-20.78,46.41-46.41s-20.78-46.41-46.41-46.41h-81.09"/>
			</g>
			<g>
				
					<path fill="none" stroke="#E6E6E6" stroke-width="10" stroke-linecap="round" stroke-linejoin="round" stroke-miterlimit="10" d="
					M1213.33,902.6v81.09c0,14.93-12.1,27.03-27.03,27.03s-27.03-12.1-27.03-27.03s12.1-27.03,27.03-27.03"/>
				
					<path fill="none" stroke="#E6E6E6" stroke-width="10" stroke-linecap="round" stroke-linejoin="round" stroke-miterlimit="10" d="
					M1186.3,917.4c-36.62,0-66.3,29.68-66.3,66.3s29.68,66.3,66.3,66.3s66.3-29.68,66.3-66.3V902.6"/>
				
					<path fill="none" stroke="#E6E6E6" stroke-width="10" stroke-linecap="round" stroke-linejoin="round" stroke-miterlimit="10" d="
					M1186.3,937.29c-25.63,0-46.41,20.78-46.41,46.41s20.78,46.41,46.41,46.41s46.41-20.78,46.41-46.41V902.6"/>
			</g>
			<g>
				
					<path fill="none" stroke="#E6E6E6" stroke-width="10" stroke-linecap="round" stroke-linejoin="round" stroke-miterlimit="10" d="
					M1267.4,863.33h-81.09c-14.93,0-27.03-12.1-27.03-27.03s12.1-27.03,27.03-27.03s27.03,12.1,27.03,27.03"/>
				
					<path fill="none" stroke="#E6E6E6" stroke-width="10" stroke-linecap="round" stroke-linejoin="round" stroke-miterlimit="10" d="
					M1252.6,836.3c0-36.62-29.68-66.3-66.3-66.3s-66.3,29.68-66.3,66.3s29.68,66.3,66.3,66.3h81.09"/>
				
					<path fill="none" stroke="#E6E6E6" stroke-width="10" stroke-linecap="round" stroke-linejoin="round" stroke-miterlimit="10" d="
					M1232.71,836.3c0-25.63-20.78-46.41-46.41-46.41s-46.41,20.78-46.41,46.41s20.78,46.41,46.41,46.41h81.09"/>
			</g>
		</g>
		<g>
			<g>
				
					<path fill="none" stroke="#E6E6E6" stroke-width="10" stroke-linecap="round" stroke-linejoin="round" stroke-miterlimit="10" d="
					M186.67,637.4V556.3c0-14.93,12.1-27.03,27.03-27.03s27.03,12.1,27.03,27.03s-12.1,27.03-27.03,27.03"/>
				
					<path fill="none" stroke="#E6E6E6" stroke-width="10" stroke-linecap="round" stroke-linejoin="round" stroke-miterlimit="10" d="
					M213.7,622.6c36.62,0,66.3-29.68,66.3-66.3S250.32,490,213.7,490s-66.3,29.68-66.3,66.3v81.09"/>
				
					<path fill="none" stroke="#E6E6E6" stroke-width="10" stroke-linecap="round" stroke-linejoin="round" stroke-miterlimit="10" d="
					M213.7,602.71c25.63,0,46.41-20.78,46.41-46.41s-20.78-46.41-46.41-46.41s-46.41,20.78-46.41,46.41v81.09"/>
			</g>
			<g>
				
					<path fill="none" stroke="#E6E6E6" stroke-width="10" stroke-linecap="round" stroke-linejoin="round" stroke-miterlimit="10" d="
					M132.6,676.67h81.09c14.93,0,27.03,12.1,27.03,27.03s-12.1,27.03-27.03,27.03s-27.03-12.1-27.03-27.03"/>
				
					<path fill="none" stroke="#E6E6E6" stroke-width="10" stroke-linecap="round" stroke-linejoin="round" stroke-miterlimit="10" d="
					M147.4,703.7c0,36.62,29.68,66.3,66.3,66.3s66.3-29.68,66.3-66.3s-29.68-66.3-66.3-66.3H132.6"/>
				
					<path fill="none" stroke="#E6E6E6" stroke-width="10" stroke-linecap="round" stroke-linejoin="round" stroke-miterlimit="10" d="
					M167.29,703.7c0,25.63,20.78,46.41,46.41,46.41s46.41-20.78,46.41-46.41s-20.78-46.41-46.41-46.41H132.6"/>
			</g>
			<g>
				
					<path fill="none" stroke="#E6E6E6" stroke-width="10" stroke-linecap="round" stroke-linejoin="round" stroke-miterlimit="10" d="
					M93.33,622.6v81.09c0,14.93-12.1,27.03-27.03,27.03s-27.03-12.1-27.03-27.03s12.1-27.03,27.03-27.03"/>
				
					<path fill="none" stroke="#E6E6E6" stroke-width="10" stroke-linecap="round" stroke-linejoin="round" stroke-miterlimit="10" d="
					M66.3,637.4C29.68,637.4,0,667.08,0,703.7S29.68,770,66.3,770s66.3-29.68,66.3-66.3V622.6"/>
				
					<path fill="none" stroke="#E6E6E6" stroke-width="10" stroke-linecap="round" stroke-linejoin="round" stroke-miterlimit="10" d="
					M66.3,657.29c-25.63,0-46.41,20.78-46.41,46.41s20.78,46.41,46.41,46.41s46.41-20.78,46.41-46.41V622.6"/>
			</g>
			<g>
				
					<path fill="none" stroke="#E6E6E6" stroke-width="10" stroke-linecap="round" stroke-linejoin="round" stroke-miterlimit="10" d="
					M147.4,583.33H66.3c-14.93,0-27.03-12.1-27.03-27.03s12.1-27.03,27.03-27.03s27.03,12.1,27.03,27.03"/>
				
					<path fill="none" stroke="#E6E6E6" stroke-width="10" stroke-linecap="round" stroke-linejoin="round" stroke-miterlimit="10" d="
					M132.6,556.3c0-36.62-29.68-66.3-66.3-66.3S0,519.68,0,556.3s29.68,66.3,66.3,66.3h81.09"/>
				
					<path fill="none" stroke="#E6E6E6" stroke-width="10" stroke-linecap="round" stroke-linejoin="round" stroke-miterlimit="10" d="
					M112.71,556.3c0-25.63-20.78-46.41-46.41-46.41s-46.41,20.78-46.41,46.41s20.78,46.41,46.41,46.41h81.09"/>
			</g>
		</g>
		<g>
			<g>
				
					<path fill="none" stroke="#E6E6E6" stroke-width="10" stroke-linecap="round" stroke-linejoin="round" stroke-miterlimit="10" d="
					M466.67,637.4V556.3c0-14.93,12.1-27.03,27.03-27.03s27.03,12.1,27.03,27.03s-12.1,27.03-27.03,27.03"/>
				
					<path fill="none" stroke="#E6E6E6" stroke-width="10" stroke-linecap="round" stroke-linejoin="round" stroke-miterlimit="10" d="
					M493.7,622.6c36.62,0,66.3-29.68,66.3-66.3S530.32,490,493.7,490s-66.3,29.68-66.3,66.3v81.09"/>
				
					<path fill="none" stroke="#E6E6E6" stroke-width="10" stroke-linecap="round" stroke-linejoin="round" stroke-miterlimit="10" d="
					M493.7,602.71c25.63,0,46.41-20.78,46.41-46.41s-20.78-46.41-46.41-46.41s-46.41,20.78-46.41,46.41v81.09"/>
			</g>
			<g>
				
					<path fill="none" stroke="#E6E6E6" stroke-width="10" stroke-linecap="round" stroke-linejoin="round" stroke-miterlimit="10" d="
					M412.6,676.67h81.09c14.93,0,27.03,12.1,27.03,27.03s-12.1,27.03-27.03,27.03s-27.03-12.1-27.03-27.03"/>
				
					<path fill="none" stroke="#E6E6E6" stroke-width="10" stroke-linecap="round" stroke-linejoin="round" stroke-miterlimit="10" d="
					M427.4,703.7c0,36.62,29.68,66.3,66.3,66.3s66.3-29.68,66.3-66.3s-29.68-66.3-66.3-66.3H412.6"/>
				
					<path fill="none" stroke="#E6E6E6" stroke-width="10" stroke-linecap="round" stroke-linejoin="round" stroke-miterlimit="10" d="
					M447.29,703.7c0,25.63,20.78,46.41,46.41,46.41s46.41-20.78,46.41-46.41s-20.78-46.41-46.41-46.41H412.6"/>
			</g>
			<g>
				
					<path fill="none" stroke="#E6E6E6" stroke-width="10" stroke-linecap="round" stroke-linejoin="round" stroke-miterlimit="10" d="
					M373.33,622.6v81.09c0,14.93-12.1,27.03-27.03,27.03s-27.03-12.1-27.03-27.03s12.1-27.03,27.03-27.03"/>
				
					<path fill="none" stroke="#E6E6E6" stroke-width="10" stroke-linecap="round" stroke-linejoin="round" stroke-miterlimit="10" d="
					M346.3,637.4c-36.62,0-66.3,29.68-66.3,66.3s29.68,66.3,66.3,66.3s66.3-29.68,66.3-66.3V622.6"/>
				
					<path fill="none" stroke="#E6E6E6" stroke-width="10" stroke-linecap="round" stroke-linejoin="round" stroke-miterlimit="10" d="
					M346.3,657.29c-25.63,0-46.41,20.78-46.41,46.41s20.78,46.41,46.41,46.41s46.41-20.78,46.41-46.41V622.6"/>
			</g>
			<g>
				
					<path fill="none" stroke="#E6E6E6" stroke-width="10" stroke-linecap="round" stroke-linejoin="round" stroke-miterlimit="10" d="
					M427.4,583.33H346.3c-14.93,0-27.03-12.1-27.03-27.03s12.1-27.03,27.03-27.03s27.03,12.1,27.03,27.03"/>
				
					<path fill="none" stroke="#E6E6E6" stroke-width="10" stroke-linecap="round" stroke-linejoin="round" stroke-miterlimit="10" d="
					M412.6,556.3c0-36.62-29.68-66.3-66.3-66.3S280,519.68,280,556.3s29.68,66.3,66.3,66.3h81.09"/>
				
					<path fill="none" stroke="#E6E6E6" stroke-width="10" stroke-linecap="round" stroke-linejoin="round" stroke-miterlimit="10" d="
					M392.71,556.3c0-25.63-20.78-46.41-46.41-46.41s-46.41,20.78-46.41,46.41s20.78,46.41,46.41,46.41h81.09"/>
			</g>
		</g>
		<g>
			<g>
				
					<path fill="none" stroke="#E6E6E6" stroke-width="10" stroke-linecap="round" stroke-linejoin="round" stroke-miterlimit="10" d="
					M746.67,637.4V556.3c0-14.93,12.1-27.03,27.03-27.03s27.03,12.1,27.03,27.03s-12.1,27.03-27.03,27.03"/>
				
					<path fill="none" stroke="#E6E6E6" stroke-width="10" stroke-linecap="round" stroke-linejoin="round" stroke-miterlimit="10" d="
					M773.7,622.6c36.62,0,66.3-29.68,66.3-66.3S810.32,490,773.7,490s-66.3,29.68-66.3,66.3v81.09"/>
				
					<path fill="none" stroke="#E6E6E6" stroke-width="10" stroke-linecap="round" stroke-linejoin="round" stroke-miterlimit="10" d="
					M773.7,602.71c25.63,0,46.41-20.78,46.41-46.41s-20.78-46.41-46.41-46.41s-46.41,20.78-46.41,46.41v81.09"/>
			</g>
			<g>
				
					<path fill="none" stroke="#E6E6E6" stroke-width="10" stroke-linecap="round" stroke-linejoin="round" stroke-miterlimit="10" d="
					M692.6,676.67h81.09c14.93,0,27.03,12.1,27.03,27.03s-12.1,27.03-27.03,27.03s-27.03-12.1-27.03-27.03"/>
				
					<path fill="none" stroke="#E6E6E6" stroke-width="10" stroke-linecap="round" stroke-linejoin="round" stroke-miterlimit="10" d="
					M707.4,703.7c0,36.62,29.68,66.3,66.3,66.3s66.3-29.68,66.3-66.3s-29.68-66.3-66.3-66.3H692.6"/>
				
					<path fill="none" stroke="#E6E6E6" stroke-width="10" stroke-linecap="round" stroke-linejoin="round" stroke-miterlimit="10" d="
					M727.29,703.7c0,25.63,20.78,46.41,46.41,46.41s46.41-20.78,46.41-46.41s-20.78-46.41-46.41-46.41H692.6"/>
			</g>
			<g>
				
					<path fill="none" stroke="#E6E6E6" stroke-width="10" stroke-linecap="round" stroke-linejoin="round" stroke-miterlimit="10" d="
					M653.33,622.6v81.09c0,14.93-12.1,27.03-27.03,27.03s-27.03-12.1-27.03-27.03s12.1-27.03,27.03-27.03"/>
				
					<path fill="none" stroke="#E6E6E6" stroke-width="10" stroke-linecap="round" stroke-linejoin="round" stroke-miterlimit="10" d="
					M626.3,637.4c-36.62,0-66.3,29.68-66.3,66.3s29.68,66.3,66.3,66.3s66.3-29.68,66.3-66.3V622.6"/>
				
					<path fill="none" stroke="#E6E6E6" stroke-width="10" stroke-linecap="round" stroke-linejoin="round" stroke-miterlimit="10" d="
					M626.3,657.29c-25.63,0-46.41,20.78-46.41,46.41s20.78,46.41,46.41,46.41s46.41-20.78,46.41-46.41V622.6"/>
			</g>
			<g>
				
					<path fill="none" stroke="#E6E6E6" stroke-width="10" stroke-linecap="round" stroke-linejoin="round" stroke-miterlimit="10" d="
					M707.4,583.33H626.3c-14.93,0-27.03-12.1-27.03-27.03s12.1-27.03,27.03-27.03s27.03,12.1,27.03,27.03"/>
				
					<path fill="none" stroke="#E6E6E6" stroke-width="10" stroke-linecap="round" stroke-linejoin="round" stroke-miterlimit="10" d="
					M692.6,556.3c0-36.62-29.68-66.3-66.3-66.3S560,519.68,560,556.3s29.68,66.3,66.3,66.3h81.09"/>
				
					<path fill="none" stroke="#E6E6E6" stroke-width="10" stroke-linecap="round" stroke-linejoin="round" stroke-miterlimit="10" d="
					M672.71,556.3c0-25.63-20.78-46.41-46.41-46.41s-46.41,20.78-46.41,46.41s20.78,46.41,46.41,46.41h81.09"/>
			</g>
		</g>
		<g>
			<g>
				
					<path fill="none" stroke="#E6E6E6" stroke-width="10" stroke-linecap="round" stroke-linejoin="round" stroke-miterlimit="10" d="
					M1026.67,637.4V556.3c0-14.93,12.1-27.03,27.03-27.03s27.03,12.1,27.03,27.03s-12.1,27.03-27.03,27.03"/>
				
					<path fill="none" stroke="#E6E6E6" stroke-width="10" stroke-linecap="round" stroke-linejoin="round" stroke-miterlimit="10" d="
					M1053.7,622.6c36.62,0,66.3-29.68,66.3-66.3s-29.68-66.3-66.3-66.3s-66.3,29.68-66.3,66.3v81.09"/>
				
					<path fill="none" stroke="#E6E6E6" stroke-width="10" stroke-linecap="round" stroke-linejoin="round" stroke-miterlimit="10" d="
					M1053.7,602.71c25.63,0,46.41-20.78,46.41-46.41s-20.78-46.41-46.41-46.41s-46.41,20.78-46.41,46.41v81.09"/>
			</g>
			<g>
				
					<path fill="none" stroke="#E6E6E6" stroke-width="10" stroke-linecap="round" stroke-linejoin="round" stroke-miterlimit="10" d="
					M972.6,676.67h81.09c14.93,0,27.03,12.1,27.03,27.03s-12.1,27.03-27.03,27.03s-27.03-12.1-27.03-27.03"/>
				
					<path fill="none" stroke="#E6E6E6" stroke-width="10" stroke-linecap="round" stroke-linejoin="round" stroke-miterlimit="10" d="
					M987.4,703.7c0,36.62,29.68,66.3,66.3,66.3s66.3-29.68,66.3-66.3s-29.68-66.3-66.3-66.3H972.6"/>
				
					<path fill="none" stroke="#E6E6E6" stroke-width="10" stroke-linecap="round" stroke-linejoin="round" stroke-miterlimit="10" d="
					M1007.29,703.7c0,25.63,20.78,46.41,46.41,46.41s46.41-20.78,46.41-46.41s-20.78-46.41-46.41-46.41H972.6"/>
			</g>
			<g>
				
					<path fill="none" stroke="#E6E6E6" stroke-width="10" stroke-linecap="round" stroke-linejoin="round" stroke-miterlimit="10" d="
					M933.33,622.6v81.09c0,14.93-12.1,27.03-27.03,27.03s-27.03-12.1-27.03-27.03s12.1-27.03,27.03-27.03"/>
				
					<path fill="none" stroke="#E6E6E6" stroke-width="10" stroke-linecap="round" stroke-linejoin="round" stroke-miterlimit="10" d="
					M906.3,637.4c-36.62,0-66.3,29.68-66.3,66.3s29.68,66.3,66.3,66.3s66.3-29.68,66.3-66.3V622.6"/>
				
					<path fill="none" stroke="#E6E6E6" stroke-width="10" stroke-linecap="round" stroke-linejoin="round" stroke-miterlimit="10" d="
					M906.3,657.29c-25.63,0-46.41,20.78-46.41,46.41s20.78,46.41,46.41,46.41s46.41-20.78,46.41-46.41V622.6"/>
			</g>
			<g>
				
					<path fill="none" stroke="#E6E6E6" stroke-width="10" stroke-linecap="round" stroke-linejoin="round" stroke-miterlimit="10" d="
					M987.4,583.33H906.3c-14.93,0-27.03-12.1-27.03-27.03s12.1-27.03,27.03-27.03s27.03,12.1,27.03,27.03"/>
				
					<path fill="none" stroke="#E6E6E6" stroke-width="10" stroke-linecap="round" stroke-linejoin="round" stroke-miterlimit="10" d="
					M972.6,556.3c0-36.62-29.68-66.3-66.3-66.3S840,519.68,840,556.3s29.68,66.3,66.3,66.3h81.09"/>
				
					<path fill="none" stroke="#E6E6E6" stroke-width="10" stroke-linecap="round" stroke-linejoin="round" stroke-miterlimit="10" d="
					M952.71,556.3c0-25.63-20.78-46.41-46.41-46.41s-46.41,20.78-46.41,46.41s20.78,46.41,46.41,46.41h81.09"/>
			</g>
		</g>
		<g>
			<g>
				
					<path fill="none" stroke="#E6E6E6" stroke-width="10" stroke-linecap="round" stroke-linejoin="round" stroke-miterlimit="10" d="
					M1306.67,637.4V556.3c0-14.93,12.1-27.03,27.03-27.03s27.03,12.1,27.03,27.03s-12.1,27.03-27.03,27.03"/>
				
					<path fill="none" stroke="#E6E6E6" stroke-width="10" stroke-linecap="round" stroke-linejoin="round" stroke-miterlimit="10" d="
					M1333.7,622.6c36.62,0,66.3-29.68,66.3-66.3s-29.68-66.3-66.3-66.3s-66.3,29.68-66.3,66.3v81.09"/>
				
					<path fill="none" stroke="#E6E6E6" stroke-width="10" stroke-linecap="round" stroke-linejoin="round" stroke-miterlimit="10" d="
					M1333.7,602.71c25.63,0,46.41-20.78,46.41-46.41s-20.78-46.41-46.41-46.41s-46.41,20.78-46.41,46.41v81.09"/>
			</g>
			<g>
				
					<path fill="none" stroke="#E6E6E6" stroke-width="10" stroke-linecap="round" stroke-linejoin="round" stroke-miterlimit="10" d="
					M1252.6,676.67h81.09c14.93,0,27.03,12.1,27.03,27.03s-12.1,27.03-27.03,27.03s-27.03-12.1-27.03-27.03"/>
				
					<path fill="none" stroke="#E6E6E6" stroke-width="10" stroke-linecap="round" stroke-linejoin="round" stroke-miterlimit="10" d="
					M1267.4,703.7c0,36.62,29.68,66.3,66.3,66.3s66.3-29.68,66.3-66.3s-29.68-66.3-66.3-66.3h-81.09"/>
				
					<path fill="none" stroke="#E6E6E6" stroke-width="10" stroke-linecap="round" stroke-linejoin="round" stroke-miterlimit="10" d="
					M1287.29,703.7c0,25.63,20.78,46.41,46.41,46.41s46.41-20.78,46.41-46.41s-20.78-46.41-46.41-46.41h-81.09"/>
			</g>
			<g>
				
					<path fill="none" stroke="#E6E6E6" stroke-width="10" stroke-linecap="round" stroke-linejoin="round" stroke-miterlimit="10" d="
					M1213.33,622.6v81.09c0,14.93-12.1,27.03-27.03,27.03s-27.03-12.1-27.03-27.03s12.1-27.03,27.03-27.03"/>
				
					<path fill="none" stroke="#E6E6E6" stroke-width="10" stroke-linecap="round" stroke-linejoin="round" stroke-miterlimit="10" d="
					M1186.3,637.4c-36.62,0-66.3,29.68-66.3,66.3s29.68,66.3,66.3,66.3s66.3-29.68,66.3-66.3V622.6"/>
				
					<path fill="none" stroke="#E6E6E6" stroke-width="10" stroke-linecap="round" stroke-linejoin="round" stroke-miterlimit="10" d="
					M1186.3,657.29c-25.63,0-46.41,20.78-46.41,46.41s20.78,46.41,46.41,46.41s46.41-20.78,46.41-46.41V622.6"/>
			</g>
			<g>
				
					<path fill="none" stroke="#E6E6E6" stroke-width="10" stroke-linecap="round" stroke-linejoin="round" stroke-miterlimit="10" d="
					M1267.4,583.33h-81.09c-14.93,0-27.03-12.1-27.03-27.03s12.1-27.03,27.03-27.03s27.03,12.1,27.03,27.03"/>
				
					<path fill="none" stroke="#E6E6E6" stroke-width="10" stroke-linecap="round" stroke-linejoin="round" stroke-miterlimit="10" d="
					M1252.6,556.3c0-36.62-29.68-66.3-66.3-66.3s-66.3,29.68-66.3,66.3s29.68,66.3,66.3,66.3h81.09"/>
				
					<path fill="none" stroke="#E6E6E6" stroke-width="10" stroke-linecap="round" stroke-linejoin="round" stroke-miterlimit="10" d="
					M1232.71,556.3c0-25.63-20.78-46.41-46.41-46.41s-46.41,20.78-46.41,46.41s20.78,46.41,46.41,46.41h81.09"/>
			</g>
		</g>
		<g>
			<g>
				<g>
					
						<path fill="none" stroke="#E6E6E6" stroke-width="10" stroke-linecap="round" stroke-linejoin="round" stroke-miterlimit="10" d="
						M186.67,357.4V276.3c0-14.93,12.1-27.03,27.03-27.03s27.03,12.1,27.03,27.03s-12.1,27.03-27.03,27.03"/>
					
						<path fill="none" stroke="#E6E6E6" stroke-width="10" stroke-linecap="round" stroke-linejoin="round" stroke-miterlimit="10" d="
						M213.7,342.6c36.62,0,66.3-29.68,66.3-66.3S250.32,210,213.7,210s-66.3,29.68-66.3,66.3v81.09"/>
					
						<path fill="none" stroke="#E6E6E6" stroke-width="10" stroke-linecap="round" stroke-linejoin="round" stroke-miterlimit="10" d="
						M213.7,322.71c25.63,0,46.41-20.78,46.41-46.41s-20.78-46.41-46.41-46.41s-46.41,20.78-46.41,46.41v81.09"/>
				</g>
				<g>
					
						<path fill="none" stroke="#E6E6E6" stroke-width="10" stroke-linecap="round" stroke-linejoin="round" stroke-miterlimit="10" d="
						M132.6,396.67h81.09c14.93,0,27.03,12.1,27.03,27.03s-12.1,27.03-27.03,27.03s-27.03-12.1-27.03-27.03"/>
					
						<path fill="none" stroke="#E6E6E6" stroke-width="10" stroke-linecap="round" stroke-linejoin="round" stroke-miterlimit="10" d="
						M147.4,423.7c0,36.62,29.68,66.3,66.3,66.3s66.3-29.68,66.3-66.3s-29.68-66.3-66.3-66.3H132.6"/>
					
						<path fill="none" stroke="#E6E6E6" stroke-width="10" stroke-linecap="round" stroke-linejoin="round" stroke-miterlimit="10" d="
						M167.29,423.7c0,25.63,20.78,46.41,46.41,46.41s46.41-20.78,46.41-46.41s-20.78-46.41-46.41-46.41H132.6"/>
				</g>
				<g>
					
						<path fill="none" stroke="#E6E6E6" stroke-width="10" stroke-linecap="round" stroke-linejoin="round" stroke-miterlimit="10" d="
						M93.33,342.6v81.09c0,14.93-12.1,27.03-27.03,27.03s-27.03-12.1-27.03-27.03s12.1-27.03,27.03-27.03"/>
					
						<path fill="none" stroke="#E6E6E6" stroke-width="10" stroke-linecap="round" stroke-linejoin="round" stroke-miterlimit="10" d="
						M66.3,357.4C29.68,357.4,0,387.08,0,423.7S29.68,490,66.3,490s66.3-29.68,66.3-66.3V342.6"/>
					
						<path fill="none" stroke="#E6E6E6" stroke-width="10" stroke-linecap="round" stroke-linejoin="round" stroke-miterlimit="10" d="
						M66.3,377.29c-25.63,0-46.41,20.78-46.41,46.41s20.78,46.41,46.41,46.41s46.41-20.78,46.41-46.41V342.6"/>
				</g>
				<g>
					
						<path fill="none" stroke="#E6E6E6" stroke-width="10" stroke-linecap="round" stroke-linejoin="round" stroke-miterlimit="10" d="
						M147.4,303.33H66.3c-14.93,0-27.03-12.1-27.03-27.03s12.1-27.03,27.03-27.03s27.03,12.1,27.03,27.03"/>
					
						<path fill="none" stroke="#E6E6E6" stroke-width="10" stroke-linecap="round" stroke-linejoin="round" stroke-miterlimit="10" d="
						M132.6,276.3c0-36.62-29.68-66.3-66.3-66.3S0,239.68,0,276.3s29.68,66.3,66.3,66.3h81.09"/>
					
						<path fill="none" stroke="#E6E6E6" stroke-width="10" stroke-linecap="round" stroke-linejoin="round" stroke-miterlimit="10" d="
						M112.71,276.3c0-25.63-20.78-46.41-46.41-46.41s-46.41,20.78-46.41,46.41s20.78,46.41,46.41,46.41h81.09"/>
				</g>
			</g>
			<g>
				<g>
					
						<path fill="none" stroke="#E6E6E6" stroke-width="10" stroke-linecap="round" stroke-linejoin="round" stroke-miterlimit="10" d="
						M466.67,357.4V276.3c0-14.93,12.1-27.03,27.03-27.03s27.03,12.1,27.03,27.03s-12.1,27.03-27.03,27.03"/>
					
						<path fill="none" stroke="#E6E6E6" stroke-width="10" stroke-linecap="round" stroke-linejoin="round" stroke-miterlimit="10" d="
						M493.7,342.6c36.62,0,66.3-29.68,66.3-66.3S530.32,210,493.7,210s-66.3,29.68-66.3,66.3v81.09"/>
					
						<path fill="none" stroke="#E6E6E6" stroke-width="10" stroke-linecap="round" stroke-linejoin="round" stroke-miterlimit="10" d="
						M493.7,322.71c25.63,0,46.41-20.78,46.41-46.41s-20.78-46.41-46.41-46.41s-46.41,20.78-46.41,46.41v81.09"/>
				</g>
				<g>
					
						<path fill="none" stroke="#E6E6E6" stroke-width="10" stroke-linecap="round" stroke-linejoin="round" stroke-miterlimit="10" d="
						M412.6,396.67h81.09c14.93,0,27.03,12.1,27.03,27.03s-12.1,27.03-27.03,27.03s-27.03-12.1-27.03-27.03"/>
					
						<path fill="none" stroke="#E6E6E6" stroke-width="10" stroke-linecap="round" stroke-linejoin="round" stroke-miterlimit="10" d="
						M427.4,423.7c0,36.62,29.68,66.3,66.3,66.3s66.3-29.68,66.3-66.3s-29.68-66.3-66.3-66.3H412.6"/>
					
						<path fill="none" stroke="#E6E6E6" stroke-width="10" stroke-linecap="round" stroke-linejoin="round" stroke-miterlimit="10" d="
						M447.29,423.7c0,25.63,20.78,46.41,46.41,46.41s46.41-20.78,46.41-46.41s-20.78-46.41-46.41-46.41H412.6"/>
				</g>
				<g>
					
						<path fill="none" stroke="#E6E6E6" stroke-width="10" stroke-linecap="round" stroke-linejoin="round" stroke-miterlimit="10" d="
						M373.33,342.6v81.09c0,14.93-12.1,27.03-27.03,27.03s-27.03-12.1-27.03-27.03s12.1-27.03,27.03-27.03"/>
					
						<path fill="none" stroke="#E6E6E6" stroke-width="10" stroke-linecap="round" stroke-linejoin="round" stroke-miterlimit="10" d="
						M346.3,357.4c-36.62,0-66.3,29.68-66.3,66.3s29.68,66.3,66.3,66.3s66.3-29.68,66.3-66.3V342.6"/>
					
						<path fill="none" stroke="#E6E6E6" stroke-width="10" stroke-linecap="round" stroke-linejoin="round" stroke-miterlimit="10" d="
						M346.3,377.29c-25.63,0-46.41,20.78-46.41,46.41s20.78,46.41,46.41,46.41s46.41-20.78,46.41-46.41V342.6"/>
				</g>
				<g>
					
						<path fill="none" stroke="#E6E6E6" stroke-width="10" stroke-linecap="round" stroke-linejoin="round" stroke-miterlimit="10" d="
						M427.4,303.33H346.3c-14.93,0-27.03-12.1-27.03-27.03s12.1-27.03,27.03-27.03s27.03,12.1,27.03,27.03"/>
					
						<path fill="none" stroke="#E6E6E6" stroke-width="10" stroke-linecap="round" stroke-linejoin="round" stroke-miterlimit="10" d="
						M412.6,276.3c0-36.62-29.68-66.3-66.3-66.3S280,239.68,280,276.3s29.68,66.3,66.3,66.3h81.09"/>
					
						<path fill="none" stroke="#E6E6E6" stroke-width="10" stroke-linecap="round" stroke-linejoin="round" stroke-miterlimit="10" d="
						M392.71,276.3c0-25.63-20.78-46.41-46.41-46.41s-46.41,20.78-46.41,46.41s20.78,46.41,46.41,46.41h81.09"/>
				</g>
			</g>
			<g>
				<g>
					
						<path fill="none" stroke="#E6E6E6" stroke-width="10" stroke-linecap="round" stroke-linejoin="round" stroke-miterlimit="10" d="
						M746.67,357.4V276.3c0-14.93,12.1-27.03,27.03-27.03s27.03,12.1,27.03,27.03s-12.1,27.03-27.03,27.03"/>
					
						<path fill="none" stroke="#E6E6E6" stroke-width="10" stroke-linecap="round" stroke-linejoin="round" stroke-miterlimit="10" d="
						M773.7,342.6c36.62,0,66.3-29.68,66.3-66.3S810.32,210,773.7,210s-66.3,29.68-66.3,66.3v81.09"/>
					
						<path fill="none" stroke="#E6E6E6" stroke-width="10" stroke-linecap="round" stroke-linejoin="round" stroke-miterlimit="10" d="
						M773.7,322.71c25.63,0,46.41-20.78,46.41-46.41s-20.78-46.41-46.41-46.41s-46.41,20.78-46.41,46.41v81.09"/>
				</g>
				<g>
					
						<path fill="none" stroke="#E6E6E6" stroke-width="10" stroke-linecap="round" stroke-linejoin="round" stroke-miterlimit="10" d="
						M692.6,396.67h81.09c14.93,0,27.03,12.1,27.03,27.03s-12.1,27.03-27.03,27.03s-27.03-12.1-27.03-27.03"/>
					
						<path fill="none" stroke="#E6E6E6" stroke-width="10" stroke-linecap="round" stroke-linejoin="round" stroke-miterlimit="10" d="
						M707.4,423.7c0,36.62,29.68,66.3,66.3,66.3s66.3-29.68,66.3-66.3s-29.68-66.3-66.3-66.3H692.6"/>
					
						<path fill="none" stroke="#E6E6E6" stroke-width="10" stroke-linecap="round" stroke-linejoin="round" stroke-miterlimit="10" d="
						M727.29,423.7c0,25.63,20.78,46.41,46.41,46.41s46.41-20.78,46.41-46.41s-20.78-46.41-46.41-46.41H692.6"/>
				</g>
				<g>
					
						<path fill="none" stroke="#E6E6E6" stroke-width="10" stroke-linecap="round" stroke-linejoin="round" stroke-miterlimit="10" d="
						M653.33,342.6v81.09c0,14.93-12.1,27.03-27.03,27.03s-27.03-12.1-27.03-27.03s12.1-27.03,27.03-27.03"/>
					
						<path fill="none" stroke="#E6E6E6" stroke-width="10" stroke-linecap="round" stroke-linejoin="round" stroke-miterlimit="10" d="
						M626.3,357.4c-36.62,0-66.3,29.68-66.3,66.3s29.68,66.3,66.3,66.3s66.3-29.68,66.3-66.3V342.6"/>
					
						<path fill="none" stroke="#E6E6E6" stroke-width="10" stroke-linecap="round" stroke-linejoin="round" stroke-miterlimit="10" d="
						M626.3,377.29c-25.63,0-46.41,20.78-46.41,46.41s20.78,46.41,46.41,46.41s46.41-20.78,46.41-46.41V342.6"/>
				</g>
				<g>
					
						<path fill="none" stroke="#E6E6E6" stroke-width="10" stroke-linecap="round" stroke-linejoin="round" stroke-miterlimit="10" d="
						M707.4,303.33H626.3c-14.93,0-27.03-12.1-27.03-27.03s12.1-27.03,27.03-27.03s27.03,12.1,27.03,27.03"/>
					
						<path fill="none" stroke="#E6E6E6" stroke-width="10" stroke-linecap="round" stroke-linejoin="round" stroke-miterlimit="10" d="
						M692.6,276.3c0-36.62-29.68-66.3-66.3-66.3S560,239.68,560,276.3s29.68,66.3,66.3,66.3h81.09"/>
					
						<path fill="none" stroke="#E6E6E6" stroke-width="10" stroke-linecap="round" stroke-linejoin="round" stroke-miterlimit="10" d="
						M672.71,276.3c0-25.63-20.78-46.41-46.41-46.41s-46.41,20.78-46.41,46.41s20.78,46.41,46.41,46.41h81.09"/>
				</g>
			</g>
			<g>
				<g>
					
						<path fill="none" stroke="#E6E6E6" stroke-width="10" stroke-linecap="round" stroke-linejoin="round" stroke-miterlimit="10" d="
						M1026.67,357.4V276.3c0-14.93,12.1-27.03,27.03-27.03s27.03,12.1,27.03,27.03s-12.1,27.03-27.03,27.03"/>
					
						<path fill="none" stroke="#E6E6E6" stroke-width="10" stroke-linecap="round" stroke-linejoin="round" stroke-miterlimit="10" d="
						M1053.7,342.6c36.62,0,66.3-29.68,66.3-66.3s-29.68-66.3-66.3-66.3s-66.3,29.68-66.3,66.3v81.09"/>
					
						<path fill="none" stroke="#E6E6E6" stroke-width="10" stroke-linecap="round" stroke-linejoin="round" stroke-miterlimit="10" d="
						M1053.7,322.71c25.63,0,46.41-20.78,46.41-46.41s-20.78-46.41-46.41-46.41s-46.41,20.78-46.41,46.41v81.09"/>
				</g>
				<g>
					
						<path fill="none" stroke="#E6E6E6" stroke-width="10" stroke-linecap="round" stroke-linejoin="round" stroke-miterlimit="10" d="
						M972.6,396.67h81.09c14.93,0,27.03,12.1,27.03,27.03s-12.1,27.03-27.03,27.03s-27.03-12.1-27.03-27.03"/>
					
						<path fill="none" stroke="#E6E6E6" stroke-width="10" stroke-linecap="round" stroke-linejoin="round" stroke-miterlimit="10" d="
						M987.4,423.7c0,36.62,29.68,66.3,66.3,66.3s66.3-29.68,66.3-66.3s-29.68-66.3-66.3-66.3H972.6"/>
					
						<path fill="none" stroke="#E6E6E6" stroke-width="10" stroke-linecap="round" stroke-linejoin="round" stroke-miterlimit="10" d="
						M1007.29,423.7c0,25.63,20.78,46.41,46.41,46.41s46.41-20.78,46.41-46.41s-20.78-46.41-46.41-46.41H972.6"/>
				</g>
				<g>
					
						<path fill="none" stroke="#E6E6E6" stroke-width="10" stroke-linecap="round" stroke-linejoin="round" stroke-miterlimit="10" d="
						M933.33,342.6v81.09c0,14.93-12.1,27.03-27.03,27.03s-27.03-12.1-27.03-27.03s12.1-27.03,27.03-27.03"/>
					
						<path fill="none" stroke="#E6E6E6" stroke-width="10" stroke-linecap="round" stroke-linejoin="round" stroke-miterlimit="10" d="
						M906.3,357.4c-36.62,0-66.3,29.68-66.3,66.3s29.68,66.3,66.3,66.3s66.3-29.68,66.3-66.3V342.6"/>
					
						<path fill="none" stroke="#E6E6E6" stroke-width="10" stroke-linecap="round" stroke-linejoin="round" stroke-miterlimit="10" d="
						M906.3,377.29c-25.63,0-46.41,20.78-46.41,46.41s20.78,46.41,46.41,46.41s46.41-20.78,46.41-46.41V342.6"/>
				</g>
				<g>
					
						<path fill="none" stroke="#E6E6E6" stroke-width="10" stroke-linecap="round" stroke-linejoin="round" stroke-miterlimit="10" d="
						M987.4,303.33H906.3c-14.93,0-27.03-12.1-27.03-27.03s12.1-27.03,27.03-27.03s27.03,12.1,27.03,27.03"/>
					
						<path fill="none" stroke="#E6E6E6" stroke-width="10" stroke-linecap="round" stroke-linejoin="round" stroke-miterlimit="10" d="
						M972.6,276.3c0-36.62-29.68-66.3-66.3-66.3S840,239.68,840,276.3s29.68,66.3,66.3,66.3h81.09"/>
					
						<path fill="none" stroke="#E6E6E6" stroke-width="10" stroke-linecap="round" stroke-linejoin="round" stroke-miterlimit="10" d="
						M952.71,276.3c0-25.63-20.78-46.41-46.41-46.41s-46.41,20.78-46.41,46.41s20.78,46.41,46.41,46.41h81.09"/>
				</g>
			</g>
			<g>
				<g>
					
						<path fill="none" stroke="#E6E6E6" stroke-width="10" stroke-linecap="round" stroke-linejoin="round" stroke-miterlimit="10" d="
						M1306.67,357.4V276.3c0-14.93,12.1-27.03,27.03-27.03s27.03,12.1,27.03,27.03s-12.1,27.03-27.03,27.03"/>
					
						<path fill="none" stroke="#E6E6E6" stroke-width="10" stroke-linecap="round" stroke-linejoin="round" stroke-miterlimit="10" d="
						M1333.7,342.6c36.62,0,66.3-29.68,66.3-66.3s-29.68-66.3-66.3-66.3s-66.3,29.68-66.3,66.3v81.09"/>
					
						<path fill="none" stroke="#E6E6E6" stroke-width="10" stroke-linecap="round" stroke-linejoin="round" stroke-miterlimit="10" d="
						M1333.7,322.71c25.63,0,46.41-20.78,46.41-46.41s-20.78-46.41-46.41-46.41s-46.41,20.78-46.41,46.41v81.09"/>
				</g>
				<g>
					
						<path fill="none" stroke="#E6E6E6" stroke-width="10" stroke-linecap="round" stroke-linejoin="round" stroke-miterlimit="10" d="
						M1252.6,396.67h81.09c14.93,0,27.03,12.1,27.03,27.03s-12.1,27.03-27.03,27.03s-27.03-12.1-27.03-27.03"/>
					
						<path fill="none" stroke="#E6E6E6" stroke-width="10" stroke-linecap="round" stroke-linejoin="round" stroke-miterlimit="10" d="
						M1267.4,423.7c0,36.62,29.68,66.3,66.3,66.3s66.3-29.68,66.3-66.3s-29.68-66.3-66.3-66.3h-81.09"/>
					
						<path fill="none" stroke="#E6E6E6" stroke-width="10" stroke-linecap="round" stroke-linejoin="round" stroke-miterlimit="10" d="
						M1287.29,423.7c0,25.63,20.78,46.41,46.41,46.41s46.41-20.78,46.41-46.41s-20.78-46.41-46.41-46.41h-81.09"/>
				</g>
				<g>
					
						<path fill="none" stroke="#E6E6E6" stroke-width="10" stroke-linecap="round" stroke-linejoin="round" stroke-miterlimit="10" d="
						M1213.33,342.6v81.09c0,14.93-12.1,27.03-27.03,27.03s-27.03-12.1-27.03-27.03s12.1-27.03,27.03-27.03"/>
					
						<path fill="none" stroke="#E6E6E6" stroke-width="10" stroke-linecap="round" stroke-linejoin="round" stroke-miterlimit="10" d="
						M1186.3,357.4c-36.62,0-66.3,29.68-66.3,66.3s29.68,66.3,66.3,66.3s66.3-29.68,66.3-66.3V342.6"/>
					
						<path fill="none" stroke="#E6E6E6" stroke-width="10" stroke-linecap="round" stroke-linejoin="round" stroke-miterlimit="10" d="
						M1186.3,377.29c-25.63,0-46.41,20.78-46.41,46.41s20.78,46.41,46.41,46.41s46.41-20.78,46.41-46.41V342.6"/>
				</g>
				<g>
					
						<path fill="none" stroke="#E6E6E6" stroke-width="10" stroke-linecap="round" stroke-linejoin="round" stroke-miterlimit="10" d="
						M1267.4,303.33h-81.09c-14.93,0-27.03-12.1-27.03-27.03s12.1-27.03,27.03-27.03s27.03,12.1,27.03,27.03"/>
					
						<path fill="none" stroke="#E6E6E6" stroke-width="10" stroke-linecap="round" stroke-linejoin="round" stroke-miterlimit="10" d="
						M1252.6,276.3c0-36.62-29.68-66.3-66.3-66.3s-66.3,29.68-66.3,66.3s29.68,66.3,66.3,66.3h81.09"/>
					
						<path fill="none" stroke="#E6E6E6" stroke-width="10" stroke-linecap="round" stroke-linejoin="round" stroke-miterlimit="10" d="
						M1232.71,276.3c0-25.63-20.78-46.41-46.41-46.41s-46.41,20.78-46.41,46.41s20.78,46.41,46.41,46.41h81.09"/>
				</g>
			</g>
			<g>
				<g>
					
						<path fill="none" stroke="#E6E6E6" stroke-width="10" stroke-linecap="round" stroke-linejoin="round" stroke-miterlimit="10" d="
						M186.67,77.4V-3.7c0-14.93,12.1-27.03,27.03-27.03s27.03,12.1,27.03,27.03s-12.1,27.03-27.03,27.03"/>
					
						<path fill="none" stroke="#E6E6E6" stroke-width="10" stroke-linecap="round" stroke-linejoin="round" stroke-miterlimit="10" d="
						M213.7,62.6c36.62,0,66.3-29.68,66.3-66.3S250.32-70,213.7-70s-66.3,29.68-66.3,66.3V77.4"/>
					
						<path fill="none" stroke="#E6E6E6" stroke-width="10" stroke-linecap="round" stroke-linejoin="round" stroke-miterlimit="10" d="
						M213.7,42.71c25.63,0,46.41-20.78,46.41-46.41s-20.78-46.41-46.41-46.41S167.29-29.33,167.29-3.7V77.4"/>
				</g>
				<g>
					
						<path fill="none" stroke="#E6E6E6" stroke-width="10" stroke-linecap="round" stroke-linejoin="round" stroke-miterlimit="10" d="
						M132.6,116.67h81.09c14.93,0,27.03,12.1,27.03,27.03s-12.1,27.03-27.03,27.03s-27.03-12.1-27.03-27.03"/>
					
						<path fill="none" stroke="#E6E6E6" stroke-width="10" stroke-linecap="round" stroke-linejoin="round" stroke-miterlimit="10" d="
						M147.4,143.7c0,36.62,29.68,66.3,66.3,66.3s66.3-29.68,66.3-66.3s-29.68-66.3-66.3-66.3H132.6"/>
					
						<path fill="none" stroke="#E6E6E6" stroke-width="10" stroke-linecap="round" stroke-linejoin="round" stroke-miterlimit="10" d="
						M167.29,143.7c0,25.63,20.78,46.41,46.41,46.41s46.41-20.78,46.41-46.41s-20.78-46.41-46.41-46.41H132.6"/>
				</g>
				<g>
					
						<path fill="none" stroke="#E6E6E6" stroke-width="10" stroke-linecap="round" stroke-linejoin="round" stroke-miterlimit="10" d="
						M93.33,62.6v81.09c0,14.93-12.1,27.03-27.03,27.03s-27.03-12.1-27.03-27.03s12.1-27.03,27.03-27.03"/>
					
						<path fill="none" stroke="#E6E6E6" stroke-width="10" stroke-linecap="round" stroke-linejoin="round" stroke-miterlimit="10" d="
						M66.3,77.4C29.68,77.4,0,107.08,0,143.7S29.68,210,66.3,210s66.3-29.68,66.3-66.3V62.6"/>
					
						<path fill="none" stroke="#E6E6E6" stroke-width="10" stroke-linecap="round" stroke-linejoin="round" stroke-miterlimit="10" d="
						M66.3,97.29c-25.63,0-46.41,20.78-46.41,46.41s20.78,46.41,46.41,46.41s46.41-20.78,46.41-46.41V62.6"/>
				</g>
				<g>
					
						<path fill="none" stroke="#E6E6E6" stroke-width="10" stroke-linecap="round" stroke-linejoin="round" stroke-miterlimit="10" d="
						M147.4,23.33H66.3c-14.93,0-27.03-12.1-27.03-27.03s12.1-27.03,27.03-27.03S93.33-18.63,93.33-3.7"/>
					
						<path fill="none" stroke="#E6E6E6" stroke-width="10" stroke-linecap="round" stroke-linejoin="round" stroke-miterlimit="10" d="
						M132.6-3.7c0-36.62-29.68-66.3-66.3-66.3S0-40.32,0-3.7s29.68,66.3,66.3,66.3h81.09"/>
					
						<path fill="none" stroke="#E6E6E6" stroke-width="10" stroke-linecap="round" stroke-linejoin="round" stroke-miterlimit="10" d="
						M112.71-3.7c0-25.63-20.78-46.41-46.41-46.41S19.89-29.33,19.89-3.7S40.67,42.71,66.3,42.71h81.09"/>
				</g>
			</g>
			<g>
				<g>
					
						<path fill="none" stroke="#E6E6E6" stroke-width="10" stroke-linecap="round" stroke-linejoin="round" stroke-miterlimit="10" d="
						M466.67,77.4V-3.7c0-14.93,12.1-27.03,27.03-27.03s27.03,12.1,27.03,27.03s-12.1,27.03-27.03,27.03"/>
					
						<path fill="none" stroke="#E6E6E6" stroke-width="10" stroke-linecap="round" stroke-linejoin="round" stroke-miterlimit="10" d="
						M493.7,62.6c36.62,0,66.3-29.68,66.3-66.3S530.32-70,493.7-70s-66.3,29.68-66.3,66.3V77.4"/>
					
						<path fill="none" stroke="#E6E6E6" stroke-width="10" stroke-linecap="round" stroke-linejoin="round" stroke-miterlimit="10" d="
						M493.7,42.71c25.63,0,46.41-20.78,46.41-46.41s-20.78-46.41-46.41-46.41S447.29-29.33,447.29-3.7V77.4"/>
				</g>
				<g>
					
						<path fill="none" stroke="#E6E6E6" stroke-width="10" stroke-linecap="round" stroke-linejoin="round" stroke-miterlimit="10" d="
						M412.6,116.67h81.09c14.93,0,27.03,12.1,27.03,27.03s-12.1,27.03-27.03,27.03s-27.03-12.1-27.03-27.03"/>
					
						<path fill="none" stroke="#E6E6E6" stroke-width="10" stroke-linecap="round" stroke-linejoin="round" stroke-miterlimit="10" d="
						M427.4,143.7c0,36.62,29.68,66.3,66.3,66.3s66.3-29.68,66.3-66.3s-29.68-66.3-66.3-66.3H412.6"/>
					
						<path fill="none" stroke="#E6E6E6" stroke-width="10" stroke-linecap="round" stroke-linejoin="round" stroke-miterlimit="10" d="
						M447.29,143.7c0,25.63,20.78,46.41,46.41,46.41s46.41-20.78,46.41-46.41s-20.78-46.41-46.41-46.41H412.6"/>
				</g>
				<g>
					
						<path fill="none" stroke="#E6E6E6" stroke-width="10" stroke-linecap="round" stroke-linejoin="round" stroke-miterlimit="10" d="
						M373.33,62.6v81.09c0,14.93-12.1,27.03-27.03,27.03s-27.03-12.1-27.03-27.03s12.1-27.03,27.03-27.03"/>
					
						<path fill="none" stroke="#E6E6E6" stroke-width="10" stroke-linecap="round" stroke-linejoin="round" stroke-miterlimit="10" d="
						M346.3,77.4c-36.62,0-66.3,29.68-66.3,66.3s29.68,66.3,66.3,66.3s66.3-29.68,66.3-66.3V62.6"/>
					
						<path fill="none" stroke="#E6E6E6" stroke-width="10" stroke-linecap="round" stroke-linejoin="round" stroke-miterlimit="10" d="
						M346.3,97.29c-25.63,0-46.41,20.78-46.41,46.41s20.78,46.41,46.41,46.41s46.41-20.78,46.41-46.41V62.6"/>
				</g>
				<g>
					
						<path fill="none" stroke="#E6E6E6" stroke-width="10" stroke-linecap="round" stroke-linejoin="round" stroke-miterlimit="10" d="
						M427.4,23.33H346.3c-14.93,0-27.03-12.1-27.03-27.03s12.1-27.03,27.03-27.03s27.03,12.1,27.03,27.03"/>
					
						<path fill="none" stroke="#E6E6E6" stroke-width="10" stroke-linecap="round" stroke-linejoin="round" stroke-miterlimit="10" d="
						M412.6-3.7c0-36.62-29.68-66.3-66.3-66.3S280-40.32,280-3.7s29.68,66.3,66.3,66.3h81.09"/>
					
						<path fill="none" stroke="#E6E6E6" stroke-width="10" stroke-linecap="round" stroke-linejoin="round" stroke-miterlimit="10" d="
						M392.71-3.7c0-25.63-20.78-46.41-46.41-46.41S299.89-29.33,299.89-3.7s20.78,46.41,46.41,46.41h81.09"/>
				</g>
			</g>
			<g>
				<g>
					
						<path fill="none" stroke="#E6E6E6" stroke-width="10" stroke-linecap="round" stroke-linejoin="round" stroke-miterlimit="10" d="
						M746.67,77.4V-3.7c0-14.93,12.1-27.03,27.03-27.03s27.03,12.1,27.03,27.03s-12.1,27.03-27.03,27.03"/>
					
						<path fill="none" stroke="#E6E6E6" stroke-width="10" stroke-linecap="round" stroke-linejoin="round" stroke-miterlimit="10" d="
						M773.7,62.6c36.62,0,66.3-29.68,66.3-66.3S810.32-70,773.7-70s-66.3,29.68-66.3,66.3V77.4"/>
					
						<path fill="none" stroke="#E6E6E6" stroke-width="10" stroke-linecap="round" stroke-linejoin="round" stroke-miterlimit="10" d="
						M773.7,42.71c25.63,0,46.41-20.78,46.41-46.41s-20.78-46.41-46.41-46.41S727.29-29.33,727.29-3.7V77.4"/>
				</g>
				<g>
					
						<path fill="none" stroke="#E6E6E6" stroke-width="10" stroke-linecap="round" stroke-linejoin="round" stroke-miterlimit="10" d="
						M692.6,116.67h81.09c14.93,0,27.03,12.1,27.03,27.03s-12.1,27.03-27.03,27.03s-27.03-12.1-27.03-27.03"/>
					
						<path fill="none" stroke="#E6E6E6" stroke-width="10" stroke-linecap="round" stroke-linejoin="round" stroke-miterlimit="10" d="
						M707.4,143.7c0,36.62,29.68,66.3,66.3,66.3s66.3-29.68,66.3-66.3s-29.68-66.3-66.3-66.3H692.6"/>
					
						<path fill="none" stroke="#E6E6E6" stroke-width="10" stroke-linecap="round" stroke-linejoin="round" stroke-miterlimit="10" d="
						M727.29,143.7c0,25.63,20.78,46.41,46.41,46.41s46.41-20.78,46.41-46.41s-20.78-46.41-46.41-46.41H692.6"/>
				</g>
				<g>
					
						<path fill="none" stroke="#E6E6E6" stroke-width="10" stroke-linecap="round" stroke-linejoin="round" stroke-miterlimit="10" d="
						M653.33,62.6v81.09c0,14.93-12.1,27.03-27.03,27.03s-27.03-12.1-27.03-27.03s12.1-27.03,27.03-27.03"/>
					
						<path fill="none" stroke="#E6E6E6" stroke-width="10" stroke-linecap="round" stroke-linejoin="round" stroke-miterlimit="10" d="
						M626.3,77.4c-36.62,0-66.3,29.68-66.3,66.3s29.68,66.3,66.3,66.3s66.3-29.68,66.3-66.3V62.6"/>
					
						<path fill="none" stroke="#E6E6E6" stroke-width="10" stroke-linecap="round" stroke-linejoin="round" stroke-miterlimit="10" d="
						M626.3,97.29c-25.63,0-46.41,20.78-46.41,46.41s20.78,46.41,46.41,46.41s46.41-20.78,46.41-46.41V62.6"/>
				</g>
				<g>
					
						<path fill="none" stroke="#E6E6E6" stroke-width="10" stroke-linecap="round" stroke-linejoin="round" stroke-miterlimit="10" d="
						M707.4,23.33H626.3c-14.93,0-27.03-12.1-27.03-27.03s12.1-27.03,27.03-27.03s27.03,12.1,27.03,27.03"/>
					
						<path fill="none" stroke="#E6E6E6" stroke-width="10" stroke-linecap="round" stroke-linejoin="round" stroke-miterlimit="10" d="
						M692.6-3.7c0-36.62-29.68-66.3-66.3-66.3S560-40.32,560-3.7s29.68,66.3,66.3,66.3h81.09"/>
					
						<path fill="none" stroke="#E6E6E6" stroke-width="10" stroke-linecap="round" stroke-linejoin="round" stroke-miterlimit="10" d="
						M672.71-3.7c0-25.63-20.78-46.41-46.41-46.41S579.89-29.33,579.89-3.7s20.78,46.41,46.41,46.41h81.09"/>
				</g>
			</g>
			<g>
				<g>
					
						<path fill="none" stroke="#E6E6E6" stroke-width="10" stroke-linecap="round" stroke-linejoin="round" stroke-miterlimit="10" d="
						M1026.67,77.4V-3.7c0-14.93,12.1-27.03,27.03-27.03s27.03,12.1,27.03,27.03s-12.1,27.03-27.03,27.03"/>
					
						<path fill="none" stroke="#E6E6E6" stroke-width="10" stroke-linecap="round" stroke-linejoin="round" stroke-miterlimit="10" d="
						M1053.7,62.6c36.62,0,66.3-29.68,66.3-66.3S1090.32-70,1053.7-70s-66.3,29.68-66.3,66.3V77.4"/>
					
						<path fill="none" stroke="#E6E6E6" stroke-width="10" stroke-linecap="round" stroke-linejoin="round" stroke-miterlimit="10" d="
						M1053.7,42.71c25.63,0,46.41-20.78,46.41-46.41s-20.78-46.41-46.41-46.41s-46.41,20.78-46.41,46.41V77.4"/>
				</g>
				<g>
					
						<path fill="none" stroke="#E6E6E6" stroke-width="10" stroke-linecap="round" stroke-linejoin="round" stroke-miterlimit="10" d="
						M972.6,116.67h81.09c14.93,0,27.03,12.1,27.03,27.03s-12.1,27.03-27.03,27.03s-27.03-12.1-27.03-27.03"/>
					
						<path fill="none" stroke="#E6E6E6" stroke-width="10" stroke-linecap="round" stroke-linejoin="round" stroke-miterlimit="10" d="
						M987.4,143.7c0,36.62,29.68,66.3,66.3,66.3s66.3-29.68,66.3-66.3s-29.68-66.3-66.3-66.3H972.6"/>
					
						<path fill="none" stroke="#E6E6E6" stroke-width="10" stroke-linecap="round" stroke-linejoin="round" stroke-miterlimit="10" d="
						M1007.29,143.7c0,25.63,20.78,46.41,46.41,46.41s46.41-20.78,46.41-46.41s-20.78-46.41-46.41-46.41H972.6"/>
				</g>
				<g>
					
						<path fill="none" stroke="#E6E6E6" stroke-width="10" stroke-linecap="round" stroke-linejoin="round" stroke-miterlimit="10" d="
						M933.33,62.6v81.09c0,14.93-12.1,27.03-27.03,27.03s-27.03-12.1-27.03-27.03s12.1-27.03,27.03-27.03"/>
					
						<path fill="none" stroke="#E6E6E6" stroke-width="10" stroke-linecap="round" stroke-linejoin="round" stroke-miterlimit="10" d="
						M906.3,77.4c-36.62,0-66.3,29.68-66.3,66.3s29.68,66.3,66.3,66.3s66.3-29.68,66.3-66.3V62.6"/>
					
						<path fill="none" stroke="#E6E6E6" stroke-width="10" stroke-linecap="round" stroke-linejoin="round" stroke-miterlimit="10" d="
						M906.3,97.29c-25.63,0-46.41,20.78-46.41,46.41s20.78,46.41,46.41,46.41s46.41-20.78,46.41-46.41V62.6"/>
				</g>
				<g>
					
						<path fill="none" stroke="#E6E6E6" stroke-width="10" stroke-linecap="round" stroke-linejoin="round" stroke-miterlimit="10" d="
						M987.4,23.33H906.3c-14.93,0-27.03-12.1-27.03-27.03s12.1-27.03,27.03-27.03s27.03,12.1,27.03,27.03"/>
					
						<path fill="none" stroke="#E6E6E6" stroke-width="10" stroke-linecap="round" stroke-linejoin="round" stroke-miterlimit="10" d="
						M972.6-3.7c0-36.62-29.68-66.3-66.3-66.3S840-40.32,840-3.7s29.68,66.3,66.3,66.3h81.09"/>
					
						<path fill="none" stroke="#E6E6E6" stroke-width="10" stroke-linecap="round" stroke-linejoin="round" stroke-miterlimit="10" d="
						M952.71-3.7c0-25.63-20.78-46.41-46.41-46.41S859.89-29.33,859.89-3.7s20.78,46.41,46.41,46.41h81.09"/>
				</g>
			</g>
			<g>
				<g>
					
						<path fill="none" stroke="#E6E6E6" stroke-width="10" stroke-linecap="round" stroke-linejoin="round" stroke-miterlimit="10" d="
						M1306.67,77.4V-3.7c0-14.93,12.1-27.03,27.03-27.03s27.03,12.1,27.03,27.03s-12.1,27.03-27.03,27.03"/>
					
						<path fill="none" stroke="#E6E6E6" stroke-width="10" stroke-linecap="round" stroke-linejoin="round" stroke-miterlimit="10" d="
						M1333.7,62.6c36.62,0,66.3-29.68,66.3-66.3S1370.32-70,1333.7-70s-66.3,29.68-66.3,66.3V77.4"/>
					
						<path fill="none" stroke="#E6E6E6" stroke-width="10" stroke-linecap="round" stroke-linejoin="round" stroke-miterlimit="10" d="
						M1333.7,42.71c25.63,0,46.41-20.78,46.41-46.41s-20.78-46.41-46.41-46.41s-46.41,20.78-46.41,46.41V77.4"/>
				</g>
				<g>
					
						<path fill="none" stroke="#E6E6E6" stroke-width="10" stroke-linecap="round" stroke-linejoin="round" stroke-miterlimit="10" d="
						M1252.6,116.67h81.09c14.93,0,27.03,12.1,27.03,27.03s-12.1,27.03-27.03,27.03s-27.03-12.1-27.03-27.03"/>
					
						<path fill="none" stroke="#E6E6E6" stroke-width="10" stroke-linecap="round" stroke-linejoin="round" stroke-miterlimit="10" d="
						M1267.4,143.7c0,36.62,29.68,66.3,66.3,66.3s66.3-29.68,66.3-66.3s-29.68-66.3-66.3-66.3h-81.09"/>
					
						<path fill="none" stroke="#E6E6E6" stroke-width="10" stroke-linecap="round" stroke-linejoin="round" stroke-miterlimit="10" d="
						M1287.29,143.7c0,25.63,20.78,46.41,46.41,46.41s46.41-20.78,46.41-46.41s-20.78-46.41-46.41-46.41h-81.09"/>
				</g>
				<g>
					
						<path fill="none" stroke="#E6E6E6" stroke-width="10" stroke-linecap="round" stroke-linejoin="round" stroke-miterlimit="10" d="
						M1213.33,62.6v81.09c0,14.93-12.1,27.03-27.03,27.03s-27.03-12.1-27.03-27.03s12.1-27.03,27.03-27.03"/>
					
						<path fill="none" stroke="#E6E6E6" stroke-width="10" stroke-linecap="round" stroke-linejoin="round" stroke-miterlimit="10" d="
						M1186.3,77.4c-36.62,0-66.3,29.68-66.3,66.3s29.68,66.3,66.3,66.3s66.3-29.68,66.3-66.3V62.6"/>
					
						<path fill="none" stroke="#E6E6E6" stroke-width="10" stroke-linecap="round" stroke-linejoin="round" stroke-miterlimit="10" d="
						M1186.3,97.29c-25.63,0-46.41,20.78-46.41,46.41s20.78,46.41,46.41,46.41s46.41-20.78,46.41-46.41V62.6"/>
				</g>
				<g>
					
						<path fill="none" stroke="#E6E6E6" stroke-width="10" stroke-linecap="round" stroke-linejoin="round" stroke-miterlimit="10" d="
						M1267.4,23.33h-81.09c-14.93,0-27.03-12.1-27.03-27.03s12.1-27.03,27.03-27.03s27.03,12.1,27.03,27.03"/>
					
						<path fill="none" stroke="#E6E6E6" stroke-width="10" stroke-linecap="round" stroke-linejoin="round" stroke-miterlimit="10" d="
						M1252.6-3.7c0-36.62-29.68-66.3-66.3-66.3S1120-40.32,1120-3.7s29.68,66.3,66.3,66.3h81.09"/>
					
						<path fill="none" stroke="#E6E6E6" stroke-width="10" stroke-linecap="round" stroke-linejoin="round" stroke-miterlimit="10" d="
						M1232.71-3.7c0-25.63-20.78-46.41-46.41-46.41s-46.41,20.78-46.41,46.41s20.78,46.41,46.41,46.41h81.09"/>
				</g>
			</g>
		</g>
	</g>
</g>
</svg>
